<svg xmlns="http://www.w3.org/2000/svg" xmlns:xlink="http://www.w3.org/1999/xlink" width="500" zoomAndPan="magnify" viewBox="0 0 375 374.999991" height="500" preserveAspectRatio="xMidYMid meet" version="1.0"><defs><g/><clipPath id="efafad4c43"><path d="M 14.152344 119 L 367.402344 119 L 367.402344 247 L 14.152344 247 Z M 14.152344 119 " clip-rule="nonzero"/></clipPath><clipPath id="8b4f84b473"><path d="M 144 72 L 157 72 L 157 85 L 144 85 Z M 144 72 " clip-rule="nonzero"/></clipPath><clipPath id="84f8abcebe"><path d="M 164.339844 59.171875 L 214.65625 113.769531 L 166.675781 157.988281 L 116.355469 103.390625 Z M 164.339844 59.171875 " clip-rule="nonzero"/></clipPath><clipPath id="e5c00b5394"><path d="M 141.867188 34.789062 L 214.550781 113.65625 L 163.808594 160.414062 L 91.128906 81.546875 Z M 141.867188 34.789062 " clip-rule="nonzero"/></clipPath><clipPath id="7d91ece3d0"><path d="M 157 74 L 171 74 L 171 88 L 157 88 Z M 157 74 " clip-rule="nonzero"/></clipPath><clipPath id="2dc7ece1c4"><path d="M 164.339844 59.171875 L 214.65625 113.769531 L 166.675781 157.988281 L 116.355469 103.390625 Z M 164.339844 59.171875 " clip-rule="nonzero"/></clipPath><clipPath id="9290071c27"><path d="M 141.867188 34.789062 L 214.550781 113.65625 L 163.808594 160.414062 L 91.128906 81.546875 Z M 141.867188 34.789062 " clip-rule="nonzero"/></clipPath><clipPath id="d4c086f00e"><path d="M 167 69 L 175 69 L 175 75 L 167 75 Z M 167 69 " clip-rule="nonzero"/></clipPath><clipPath id="3fce3e8b83"><path d="M 164.339844 59.171875 L 214.65625 113.769531 L 166.675781 157.988281 L 116.355469 103.390625 Z M 164.339844 59.171875 " clip-rule="nonzero"/></clipPath><clipPath id="a9311be495"><path d="M 141.867188 34.789062 L 214.550781 113.65625 L 163.808594 160.414062 L 91.128906 81.546875 Z M 141.867188 34.789062 " clip-rule="nonzero"/></clipPath><clipPath id="10e075d9a5"><path d="M 152 65 L 163 65 L 163 76 L 152 76 Z M 152 65 " clip-rule="nonzero"/></clipPath><clipPath id="fb8a3f5d98"><path d="M 164.339844 59.171875 L 214.65625 113.769531 L 166.675781 157.988281 L 116.355469 103.390625 Z M 164.339844 59.171875 " clip-rule="nonzero"/></clipPath><clipPath id="58582d33db"><path d="M 141.867188 34.789062 L 214.550781 113.65625 L 163.808594 160.414062 L 91.128906 81.546875 Z M 141.867188 34.789062 " clip-rule="nonzero"/></clipPath><clipPath id="07ffbcfdaf"><path d="M 153 124 L 176 124 L 176 146 L 153 146 Z M 153 124 " clip-rule="nonzero"/></clipPath><clipPath id="c60b5a52f8"><path d="M 164.339844 59.171875 L 214.65625 113.769531 L 166.675781 157.988281 L 116.355469 103.390625 Z M 164.339844 59.171875 " clip-rule="nonzero"/></clipPath><clipPath id="a56300debb"><path d="M 141.867188 34.789062 L 214.550781 113.65625 L 163.808594 160.414062 L 91.128906 81.546875 Z M 141.867188 34.789062 " clip-rule="nonzero"/></clipPath><clipPath id="39565abaac"><path d="M 164 88 L 178 88 L 178 108 L 164 108 Z M 164 88 " clip-rule="nonzero"/></clipPath><clipPath id="60630d8b8e"><path d="M 164.339844 59.171875 L 214.65625 113.769531 L 166.675781 157.988281 L 116.355469 103.390625 Z M 164.339844 59.171875 " clip-rule="nonzero"/></clipPath><clipPath id="428cab0ec4"><path d="M 141.867188 34.789062 L 214.550781 113.65625 L 163.808594 160.414062 L 91.128906 81.546875 Z M 141.867188 34.789062 " clip-rule="nonzero"/></clipPath><clipPath id="11783b7aa8"><path d="M 147 106 L 165 106 L 165 122 L 147 122 Z M 147 106 " clip-rule="nonzero"/></clipPath><clipPath id="308790afe1"><path d="M 164.339844 59.171875 L 214.65625 113.769531 L 166.675781 157.988281 L 116.355469 103.390625 Z M 164.339844 59.171875 " clip-rule="nonzero"/></clipPath><clipPath id="72bccebc2b"><path d="M 141.867188 34.789062 L 214.550781 113.65625 L 163.808594 160.414062 L 91.128906 81.546875 Z M 141.867188 34.789062 " clip-rule="nonzero"/></clipPath><clipPath id="4a9121b07e"><path d="M 169 108 L 182 108 L 182 122 L 169 122 Z M 169 108 " clip-rule="nonzero"/></clipPath><clipPath id="c3a140ff87"><path d="M 164.339844 59.171875 L 214.65625 113.769531 L 166.675781 157.988281 L 116.355469 103.390625 Z M 164.339844 59.171875 " clip-rule="nonzero"/></clipPath><clipPath id="a29daa105c"><path d="M 141.867188 34.789062 L 214.550781 113.65625 L 163.808594 160.414062 L 91.128906 81.546875 Z M 141.867188 34.789062 " clip-rule="nonzero"/></clipPath><clipPath id="68a3dd8c7e"><path d="M 179 98 L 187 98 L 187 107 L 179 107 Z M 179 98 " clip-rule="nonzero"/></clipPath><clipPath id="21c0540a90"><path d="M 164.339844 59.171875 L 214.65625 113.769531 L 166.675781 157.988281 L 116.355469 103.390625 Z M 164.339844 59.171875 " clip-rule="nonzero"/></clipPath><clipPath id="51a18934d5"><path d="M 141.867188 34.789062 L 214.550781 113.65625 L 163.808594 160.414062 L 91.128906 81.546875 Z M 141.867188 34.789062 " clip-rule="nonzero"/></clipPath><clipPath id="04c8b186b2"><path d="M 147 88 L 164 88 L 164 105 L 147 105 Z M 147 88 " clip-rule="nonzero"/></clipPath><clipPath id="5fd34c341a"><path d="M 164.339844 59.171875 L 214.65625 113.769531 L 166.675781 157.988281 L 116.355469 103.390625 Z M 164.339844 59.171875 " clip-rule="nonzero"/></clipPath><clipPath id="32042aef33"><path d="M 141.867188 34.789062 L 214.550781 113.65625 L 163.808594 160.414062 L 91.128906 81.546875 Z M 141.867188 34.789062 " clip-rule="nonzero"/></clipPath><clipPath id="b23c0a26ee"><path d="M 175 81 L 185 81 L 185 91 L 175 91 Z M 175 81 " clip-rule="nonzero"/></clipPath><clipPath id="806cd12902"><path d="M 164.339844 59.171875 L 214.65625 113.769531 L 166.675781 157.988281 L 116.355469 103.390625 Z M 164.339844 59.171875 " clip-rule="nonzero"/></clipPath><clipPath id="154bf4c0fa"><path d="M 141.867188 34.789062 L 214.550781 113.65625 L 163.808594 160.414062 L 91.128906 81.546875 Z M 141.867188 34.789062 " clip-rule="nonzero"/></clipPath></defs><g clip-path="url(#efafad4c43)"><path fill="#db6956" d="M 195.246094 241.402344 C 190.113281 235.980469 185.101562 232.234375 180.167969 230.019531 C 219.238281 197.328125 237.425781 155.921875 234.085938 140.648438 C 228.621094 176.367188 194.21875 217.464844 180.148438 230.007812 C 175.867188 228.09375 171.644531 227.339844 167.445312 227.660156 C 179.242188 211.324219 190.476562 146.140625 183.671875 130.539062 C 189.125 133.265625 194.8125 137.71875 204.417969 136.179688 C 192.523438 132.679688 188.050781 129.085938 178.007812 122.695312 C 188.125 157.574219 174.476562 209.351562 166.773438 227.722656 C 163.753906 228.039062 160.746094 228.90625 157.742188 230.304688 C 158.035156 206.15625 130.519531 139.046875 113.328125 128.261719 C 123.492188 128.382812 130.960938 126.300781 140.144531 123.484375 C 146.453125 134.382812 150.738281 147.363281 154.105469 160.21875 C 152.878906 146.167969 147.492188 132.148438 142.351562 119.078125 C 128.757812 123.058594 116.636719 124.160156 103.046875 124.21875 C 133.703125 150.964844 152.425781 207.453125 156.84375 230.742188 C 154.894531 231.714844 152.941406 232.910156 150.988281 234.316406 C 141.621094 214.222656 82.308594 167.710938 61.40625 167.132812 C 70.222656 162.074219 74.132812 157.222656 80.613281 150.132812 C 91.578125 156.320312 108.109375 171.199219 117.539062 180.566406 C 109.347656 169.085938 91.34375 153.128906 80.273438 144.484375 C 70.585938 154.8125 60.703125 161.921875 49.027344 168.875 C 90.023438 176.53125 136.085938 217.476562 150.585938 234.609375 C 149.433594 235.457031 148.28125 236.367188 147.125 237.359375 C 108.492188 225.589844 69.066406 222.558594 22.597656 239.199219 C 27.617188 231.726562 29.453125 224.992188 29.574219 217.523438 C 51.367188 213.050781 76.714844 209.5 106.351562 210.914062 C 84.359375 206.320312 53.65625 205.585938 26.269531 212.75 C 23.976562 226.464844 19.382812 237.117188 14.148438 246.910156 C 65.171875 229.050781 108.714844 228.894531 148.960938 244.339844 C 165.613281 231.363281 181.289062 231.238281 193.042969 244.707031 C 240.304688 241.6875 319.898438 239.734375 367.160156 243.605469 C 326.003906 238.648438 246.199219 238.523438 195.246094 241.402344 Z M 195.246094 241.402344 " fill-opacity="1" fill-rule="evenodd"/></g><g fill="#db6956" fill-opacity="1"><g transform="translate(208.399121, 228.819727)"><g><path d="M 2.453125 -23.171875 L 8.359375 -23.171875 C 11.679688 -23.171875 13.882812 -22.613281 14.96875 -21.5 C 16.0625 -20.382812 16.609375 -19.039062 16.609375 -17.46875 C 16.609375 -16.414062 16.378906 -15.421875 15.921875 -14.484375 C 15.460938 -13.546875 14.726562 -12.847656 13.71875 -12.390625 C 15.207031 -12.015625 16.300781 -11.351562 17 -10.40625 C 17.707031 -9.457031 18.0625 -8.34375 18.0625 -7.0625 C 18.0625 -5.71875 17.851562 -4.539062 17.4375 -3.53125 C 17.019531 -2.519531 16.144531 -1.675781 14.8125 -1 C 13.488281 -0.332031 11.578125 0 9.078125 0 L 2.453125 0 Z M 8.921875 -13.34375 C 10.410156 -13.34375 11.46875 -13.703125 12.09375 -14.421875 C 12.726562 -15.148438 13.046875 -16.070312 13.046875 -17.1875 C 13.046875 -19.1875 11.617188 -20.1875 8.765625 -20.1875 L 5.921875 -20.1875 L 5.921875 -13.34375 Z M 9.546875 -2.96875 C 11.460938 -2.96875 12.75 -3.347656 13.40625 -4.109375 C 14.070312 -4.878906 14.40625 -5.851562 14.40625 -7.03125 C 14.40625 -8.144531 14.023438 -9.003906 13.265625 -9.609375 C 12.515625 -10.222656 11.375 -10.53125 9.84375 -10.53125 L 5.921875 -10.53125 L 5.921875 -2.96875 Z M 9.546875 -2.96875 "/></g></g></g><g fill="#db6956" fill-opacity="1"><g transform="translate(228.132808, 228.819727)"><g><path d="M 10.4375 0.3125 C 7.53125 0.3125 5.425781 -0.554688 4.125 -2.296875 C 2.820312 -4.046875 2.171875 -6.582031 2.171875 -9.90625 L 2.171875 -23.171875 L 5.703125 -23.171875 L 5.703125 -9.84375 C 5.703125 -7.382812 6.070312 -5.625 6.8125 -4.5625 C 7.550781 -3.5 8.757812 -2.96875 10.4375 -2.96875 C 12.113281 -2.96875 13.316406 -3.484375 14.046875 -4.515625 C 14.773438 -5.554688 15.140625 -7.332031 15.140625 -9.84375 L 15.140625 -23.171875 L 18.703125 -23.171875 L 18.703125 -9.90625 C 18.703125 -6.601562 18.007812 -4.070312 16.625 -2.3125 C 15.25 -0.5625 13.1875 0.3125 10.4375 0.3125 Z M 10.4375 0.3125 "/></g></g></g><g fill="#db6956" fill-opacity="1"><g transform="translate(249.001337, 228.819727)"><g><path d="M 12.984375 0.21875 C 10.585938 0.21875 8.507812 -0.316406 6.75 -1.390625 C 5 -2.460938 3.660156 -3.894531 2.734375 -5.6875 C 1.816406 -7.488281 1.359375 -9.472656 1.359375 -11.640625 C 1.359375 -13.929688 1.851562 -15.976562 2.84375 -17.78125 C 3.84375 -19.59375 5.25 -21.003906 7.0625 -22.015625 C 8.875 -23.035156 10.925781 -23.546875 13.21875 -23.546875 C 14.238281 -23.546875 15.195312 -23.4375 16.09375 -23.21875 C 16.988281 -23 17.726562 -22.75 18.3125 -22.46875 C 18.90625 -22.1875 19.296875 -21.945312 19.484375 -21.75 L 17.9375 -18.609375 C 16.65625 -19.742188 14.984375 -20.3125 12.921875 -20.3125 C 11.472656 -20.3125 10.160156 -19.953125 8.984375 -19.234375 C 7.804688 -18.515625 6.878906 -17.492188 6.203125 -16.171875 C 5.535156 -14.847656 5.203125 -13.316406 5.203125 -11.578125 C 5.203125 -9.972656 5.5 -8.519531 6.09375 -7.21875 C 6.695312 -5.914062 7.578125 -4.882812 8.734375 -4.125 C 9.890625 -3.375 11.265625 -3 12.859375 -3 C 14.710938 -3 16.5 -3.523438 18.21875 -4.578125 L 19.265625 -1.578125 C 18.804688 -1.160156 17.957031 -0.753906 16.71875 -0.359375 C 15.488281 0.0234375 14.242188 0.21875 12.984375 0.21875 Z M 12.984375 0.21875 "/></g></g></g><g fill="#db6956" fill-opacity="1"><g transform="translate(269.460064, 228.819727)"><g><path d="M 2.421875 -23.171875 L 5.953125 -23.171875 L 5.953125 -13.71875 L 14.125 -13.71875 L 14.125 -23.171875 L 17.65625 -23.171875 L 17.65625 0 L 14.125 0 L 14.125 -10.75 L 5.953125 -10.75 L 5.953125 0 L 2.421875 0 Z M 2.421875 -23.171875 "/></g></g></g><g fill="#db6956" fill-opacity="1"><g transform="translate(289.540507, 228.819727)"><g><path d="M 7.78125 0.3125 C 6.519531 0.3125 5.269531 0.09375 4.03125 -0.34375 C 2.789062 -0.789062 1.898438 -1.285156 1.359375 -1.828125 L 3.03125 -4.828125 C 3.46875 -4.421875 4.15625 -4.003906 5.09375 -3.578125 C 6.03125 -3.148438 6.925781 -2.9375 7.78125 -2.9375 C 8.894531 -2.9375 9.804688 -3.195312 10.515625 -3.71875 C 11.222656 -4.25 11.578125 -4.972656 11.578125 -5.890625 C 11.578125 -6.609375 11.382812 -7.226562 11 -7.75 C 10.625 -8.28125 10.160156 -8.71875 9.609375 -9.0625 C 9.066406 -9.40625 8.289062 -9.832031 7.28125 -10.34375 C 6.082031 -10.925781 5.265625 -11.367188 4.828125 -11.671875 C 2.785156 -13.035156 1.765625 -14.925781 1.765625 -17.34375 C 1.765625 -19.34375 2.425781 -20.867188 3.75 -21.921875 C 5.070312 -22.984375 6.742188 -23.515625 8.765625 -23.515625 C 10.929688 -23.515625 12.769531 -22.894531 14.28125 -21.65625 L 12.609375 -18.796875 C 12.210938 -19.210938 11.648438 -19.570312 10.921875 -19.875 C 10.203125 -20.1875 9.429688 -20.34375 8.609375 -20.34375 C 7.554688 -20.34375 6.726562 -20.101562 6.125 -19.625 C 5.53125 -19.15625 5.234375 -18.457031 5.234375 -17.53125 C 5.234375 -16.875 5.421875 -16.289062 5.796875 -15.78125 C 6.179688 -15.269531 6.660156 -14.820312 7.234375 -14.4375 C 7.816406 -14.0625 8.597656 -13.597656 9.578125 -13.046875 C 10.523438 -12.523438 11.25 -12.109375 11.75 -11.796875 C 12.257812 -11.492188 12.738281 -11.132812 13.1875 -10.71875 C 13.789062 -10.175781 14.28125 -9.523438 14.65625 -8.765625 C 15.039062 -8.003906 15.234375 -7.175781 15.234375 -6.28125 C 15.234375 -4.863281 14.910156 -3.660156 14.265625 -2.671875 C 13.628906 -1.691406 12.75 -0.945312 11.625 -0.4375 C 10.5 0.0625 9.21875 0.3125 7.78125 0.3125 Z M 7.78125 0.3125 "/></g></g></g><g fill="#db6956" fill-opacity="1"><g transform="translate(306.090323, 228.819727)"><g><path d="M 10.9375 -23.203125 L 22.109375 0 L 18.03125 0 L 16.046875 -4.546875 L 5.421875 -4.546875 L 3.4375 0 L -0.5 0 L 10.59375 -23.203125 Z M 9.359375 -13.34375 L 6.84375 -7.71875 L 14.65625 -7.71875 L 12.171875 -13.3125 L 10.8125 -16.484375 L 10.75 -16.484375 Z M 9.359375 -13.34375 "/></g></g></g><g fill="#db6956" fill-opacity="1"><g transform="translate(327.683892, 228.819727)"><g><path d="M 5.890625 -15.015625 L 5.984375 -12.484375 L 5.984375 0 L 2.453125 0 L 2.453125 -23.203125 L 2.90625 -23.203125 L 16.515625 -8.015625 L 16.390625 -10.65625 L 16.390625 -23.171875 L 19.921875 -23.171875 L 19.921875 0 L 19.453125 0 Z M 5.890625 -15.015625 "/></g></g></g><g clip-path="url(#8b4f84b473)"><g clip-path="url(#84f8abcebe)"><g clip-path="url(#e5c00b5394)"><path fill="#db6956" d="M 150.773438 79.601562 C 148.578125 79.734375 145.328125 80.8125 144.882812 83.246094 C 148.9375 80.765625 147.078125 85.511719 150.636719 81.21875 C 150.027344 86.316406 151.507812 84.066406 153.25 83.6875 C 153.613281 83.84375 153.796875 83.761719 154.347656 84.15625 C 153.847656 83.511719 153.460938 83.246094 153.484375 82.390625 C 153.121094 81.820312 152.757812 81.203125 152.453125 80.601562 C 152.941406 81.15625 153.90625 81.816406 154.320312 81.640625 C 154.199219 81.222656 153.542969 80.671875 152.59375 80.390625 C 153.265625 80.449219 153.84375 80.503906 154.507812 80.628906 C 155.289062 80.285156 155.679688 80.546875 156.46875 80.769531 C 155.949219 80.445312 155.902344 80.203125 155.621094 79.921875 C 155.320312 78.167969 156.855469 75.953125 152.355469 78.421875 C 155.007812 73.519531 151.300781 77.019531 152.089844 72.328125 C 149.972656 73.667969 150.273438 77.132812 150.992188 79.214844 C 150.914062 79.167969 150.832031 79.113281 150.828125 79.039062 C 150.820312 78.800781 150.527344 78.789062 150.441406 78.921875 L 150.308594 78.914062 C 150.269531 78.757812 150.238281 78.601562 150.214844 78.445312 C 150.140625 77.941406 150.332031 77.722656 150.074219 77.664062 C 150.070312 77.671875 150.066406 77.675781 150.0625 77.683594 C 150.097656 77.746094 150.144531 77.792969 150.195312 77.84375 C 150.136719 78.21875 150.195312 78.554688 150.304688 78.914062 C 150.257812 78.914062 150.230469 78.941406 150.191406 78.953125 C 150.191406 78.953125 150.195312 78.957031 150.195312 78.960938 C 150.195312 78.960938 150.191406 78.960938 150.191406 78.960938 C 150.191406 78.964844 150.191406 78.964844 150.191406 78.964844 C 150.1875 78.964844 150.183594 78.964844 150.183594 78.96875 C 150.1875 79.007812 150.175781 79.042969 150.191406 79.082031 C 149.820312 79.132812 149.492188 79.21875 149.171875 79.421875 C 149.105469 79.398438 149.042969 79.375 148.972656 79.367188 C 148.96875 79.375 148.964844 79.378906 148.957031 79.382812 C 149.117188 79.597656 149.238281 79.332031 149.730469 79.195312 C 149.882812 79.152344 150.039062 79.117188 150.195312 79.089844 L 150.257812 79.203125 C 150.171875 79.339844 150.300781 79.601562 150.523438 79.511719 C 150.617188 79.476562 150.679688 79.535156 150.773438 79.601562 " fill-opacity="1" fill-rule="evenodd"/></g></g></g><g clip-path="url(#7d91ece3d0)"><g clip-path="url(#2dc7ece1c4)"><g clip-path="url(#9290071c27)"><path fill="#db6956" d="M 164.34375 82.332031 C 162.039062 82.175781 158.507812 82.867188 157.71875 85.351562 C 162.277344 83.304688 159.703125 88.003906 163.988281 84 C 162.675781 89.234375 164.519531 87.085938 166.382812 86.921875 C 166.746094 87.132812 166.945312 87.074219 167.46875 87.558594 C 167.03125 86.816406 166.664062 86.488281 166.800781 85.601562 C 166.5 84.957031 166.203125 84.265625 165.964844 83.597656 C 166.398438 84.242188 167.316406 85.058594 167.773438 84.929688 C 167.703125 84.480469 167.09375 83.820312 166.140625 83.394531 C 166.835938 83.546875 167.425781 83.683594 168.105469 83.898438 C 168.964844 83.648438 169.339844 83.96875 170.128906 84.308594 C 169.632812 83.898438 169.617188 83.644531 169.359375 83.3125 C 169.28125 81.445312 171.175781 79.339844 166.152344 81.3125 C 169.570312 76.550781 165.242188 79.707031 166.6875 74.921875 C 164.304688 76.035156 164.15625 79.691406 164.625 81.957031 C 164.550781 81.898438 164.472656 81.832031 164.480469 81.753906 C 164.5 81.5 164.195312 81.453125 164.089844 81.582031 L 163.953125 81.550781 C 163.933594 81.386719 163.917969 81.21875 163.917969 81.050781 C 163.90625 80.515625 164.136719 80.3125 163.875 80.21875 C 163.871094 80.222656 163.867188 80.230469 163.859375 80.238281 C 163.890625 80.308594 163.929688 80.363281 163.976562 80.421875 C 163.867188 80.804688 163.882812 81.160156 163.945312 81.550781 C 163.902344 81.546875 163.867188 81.570312 163.828125 81.578125 C 163.828125 81.578125 163.828125 81.582031 163.828125 81.585938 C 163.828125 81.585938 163.824219 81.585938 163.824219 81.585938 C 163.824219 81.589844 163.820312 81.589844 163.820312 81.59375 C 163.820312 81.59375 163.816406 81.589844 163.816406 81.589844 C 163.816406 81.632812 163.796875 81.667969 163.808594 81.714844 C 163.414062 81.714844 163.058594 81.761719 162.703125 81.929688 C 162.632812 81.898438 162.574219 81.863281 162.5 81.847656 C 162.492188 81.855469 162.488281 81.859375 162.480469 81.863281 C 162.621094 82.109375 162.78125 81.847656 163.3125 81.769531 C 163.476562 81.742188 163.644531 81.726562 163.8125 81.71875 L 163.863281 81.851562 C 163.753906 81.976562 163.851562 82.269531 164.097656 82.207031 C 164.199219 82.179688 164.257812 82.25 164.34375 82.332031 " fill-opacity="1" fill-rule="evenodd"/></g></g></g><g clip-path="url(#d4c086f00e)"><g clip-path="url(#3fce3e8b83)"><g clip-path="url(#a9311be495)"><path fill="#db6956" d="M 170.929688 71.699219 C 170.214844 70.8125 168.785156 69.765625 167.625 70.308594 C 169.886719 71.277344 167.328125 71.914062 170.207031 72.128906 C 167.871094 73.398438 169.265625 73.347656 169.945312 73.96875 C 169.992188 74.171875 170.078125 74.222656 170.078125 74.574219 C 170.199219 74.167969 170.195312 73.925781 170.566406 73.679688 C 170.695312 73.355469 170.847656 73.019531 171.011719 72.707031 C 170.921875 73.082031 170.933594 73.683594 171.132812 73.808594 C 171.269531 73.632812 171.308594 73.191406 171.144531 72.703125 C 171.320312 73.007812 171.46875 73.265625 171.613281 73.582031 C 171.996094 73.8125 172.003906 74.054688 172.144531 74.453125 C 172.125 74.136719 172.210938 74.046875 172.246094 73.84375 C 172.894531 73.191406 174.289062 73.171875 171.898438 72.015625 C 174.765625 71.664062 172.175781 71.148438 174.390625 70.074219 C 173.191406 69.582031 171.820312 70.75 171.15625 71.675781 C 171.152344 71.628906 171.152344 71.578125 171.183594 71.554688 C 171.28125 71.480469 171.195312 71.351562 171.113281 71.355469 L 171.078125 71.296875 C 171.132812 71.234375 171.1875 71.175781 171.25 71.117188 C 171.4375 70.9375 171.589844 70.953125 171.535156 70.824219 C 171.53125 70.824219 171.527344 70.824219 171.523438 70.824219 C 171.507812 70.859375 171.503906 70.894531 171.496094 70.929688 C 171.320312 71.019531 171.195312 71.140625 171.078125 71.296875 C 171.0625 71.277344 171.046875 71.273438 171.027344 71.261719 C 171.027344 71.261719 171.027344 71.261719 171.027344 71.265625 C 171.027344 71.261719 171.023438 71.261719 171.023438 71.261719 C 171.023438 71.261719 171.023438 71.265625 171.019531 71.265625 C 171.019531 71.261719 171.019531 71.261719 171.019531 71.261719 C 171.003906 71.277344 170.984375 71.28125 170.972656 71.300781 C 170.839844 71.15625 170.707031 71.042969 170.523438 70.972656 C 170.515625 70.9375 170.503906 70.902344 170.488281 70.871094 C 170.484375 70.871094 170.480469 70.871094 170.476562 70.871094 C 170.433594 71 170.582031 70.972656 170.785156 71.136719 C 170.851562 71.191406 170.914062 71.246094 170.972656 71.300781 L 170.941406 71.363281 C 170.859375 71.367188 170.785156 71.5 170.890625 71.566406 C 170.933594 71.597656 170.929688 71.640625 170.929688 71.699219 " fill-opacity="1" fill-rule="evenodd"/></g></g></g><g clip-path="url(#10e075d9a5)"><g clip-path="url(#fb8a3f5d98)"><g clip-path="url(#58582d33db)"><path fill="#db6956" d="M 156.472656 73.171875 C 156.335938 73.113281 156.089844 72.574219 155.816406 72.515625 C 155.417969 72.433594 155.199219 72.242188 155.152344 72.097656 C 154.113281 71.671875 152.246094 71.773438 153.089844 70.492188 C 153.761719 69.476562 154.160156 70.910156 153.492188 70.664062 C 153.863281 70.765625 153.796875 69.875 153.234375 70.535156 C 152.378906 71.546875 154.230469 71.679688 155.144531 72.023438 C 155.148438 71.96875 155.191406 71.933594 155.269531 71.925781 C 154.511719 71.296875 153.25 70.648438 154.339844 70.054688 C 155.234375 69.570312 155.089844 70.933594 154.59375 70.492188 C 154.898438 70.761719 155.160156 69.804688 154.363281 70.179688 C 153.519531 70.574219 154.695312 71.339844 155.359375 71.929688 C 155.460938 71.945312 155.601562 72 155.777344 72.113281 C 154.023438 69.160156 157.375 64.578125 157.492188 65.324219 C 157.605469 66.058594 158.351562 65.816406 158.132812 67.28125 C 158.570312 67.214844 158.734375 66.964844 158.882812 66.742188 C 159.398438 65.972656 161.644531 65.691406 162.109375 66.496094 C 162.210938 66.671875 162.226562 67.25 161.378906 68.371094 C 160.089844 70.085938 162.730469 70.992188 159.171875 71.605469 C 160.976562 71.804688 161.980469 73.21875 161.410156 73.285156 C 159.503906 73.5 159.503906 74.984375 157.398438 73.910156 C 157.800781 74.691406 158 74.871094 157.683594 75.722656 C 157.617188 74.949219 156.410156 73.933594 156.472656 73.171875 " fill-opacity="1" fill-rule="evenodd"/></g></g></g><g clip-path="url(#07ffbcfdaf)"><g clip-path="url(#c60b5a52f8)"><g clip-path="url(#a56300debb)"><path fill="#db6956" d="M 163.761719 142.191406 C 164.96875 141.292969 164.480469 137.949219 164.660156 135.324219 C 165.074219 136.574219 165.488281 137.824219 165.902344 139.070312 C 169.246094 146.160156 168.222656 142.425781 170.316406 141.890625 C 176.9375 148.21875 172.378906 143.828125 170.667969 141.507812 C 170.746094 141.347656 170.824219 141.1875 170.902344 141.027344 C 171.675781 140.726562 173.097656 140.390625 172.011719 139.441406 C 172.808594 138.753906 173.183594 138.390625 172.089844 137.527344 C 174.007812 135.78125 166.929688 134.375 166.136719 134.128906 C 168.355469 134.441406 169.945312 134.871094 172.085938 135.609375 C 175.089844 134.742188 173.472656 130.242188 175.175781 126.871094 C 173.65625 124.660156 166.179688 129.929688 164.976562 133.183594 C 164.945312 133.097656 164.914062 133.035156 164.882812 132.984375 C 164.875 132.800781 164.789062 132.613281 164.921875 132.535156 C 165.101562 132.433594 165.050781 132.230469 164.9375 132.140625 C 167.332031 125.292969 169.179688 126.402344 170.265625 126.414062 C 167.324219 125.640625 166.28125 128.523438 164.828125 132.015625 C 164.769531 131.855469 164.542969 131.855469 164.488281 132.015625 C 163.988281 128.054688 163.246094 125.074219 160.484375 125.148438 C 160.835938 125.382812 163.625 124.292969 164.351562 132.101562 C 164.234375 132.175781 164.167969 132.351562 164.316406 132.476562 C 164.449219 132.597656 164.308594 132.746094 164.261719 132.96875 C 164.21875 133.015625 164.175781 133.066406 164.132812 133.144531 C 163.5 129.734375 157.019531 123.0625 155.144531 124.984375 C 156.257812 128.59375 153.902344 132.757812 156.71875 134.121094 C 158.953125 133.753906 160.59375 133.601562 162.835938 133.664062 C 162.011719 133.773438 154.796875 133.964844 156.390625 136.007812 C 155.167969 136.675781 155.476562 137.097656 156.144531 137.910156 C 154.914062 138.660156 156.261719 139.234375 156.96875 139.660156 C 157.019531 139.832031 157.070312 140.003906 157.121094 140.175781 C 155.042969 142.171875 149.808594 145.730469 157.40625 140.609375 C 159.378906 141.492188 157.738281 145 162.226562 138.574219 C 162.847656 137.414062 163.441406 136.40625 164.058594 135.246094 C 163.808594 137.753906 162.671875 141.335938 163.761719 142.191406 " fill-opacity="1" fill-rule="evenodd"/></g></g></g><g clip-path="url(#39565abaac)"><g clip-path="url(#60630d8b8e)"><g clip-path="url(#428cab0ec4)"><path fill="#db6956" d="M 166.945312 98.316406 C 166.972656 98.304688 167 98.292969 167.027344 98.285156 C 165.699219 96.925781 165.210938 95.007812 164.777344 93.222656 C 164.378906 92.027344 165.199219 91.882812 164.933594 93.230469 C 165.316406 94.847656 165.535156 95.703125 166.378906 97.332031 C 165.84375 96.058594 165.402344 94.675781 165.476562 93.292969 C 165.207031 92.179688 166.058594 91.871094 165.628906 93.335938 C 165.5 94.625 166.167969 97.179688 167.160156 98.257812 C 167.5 98.230469 167.640625 98.570312 167.796875 99.125 C 167.96875 98.40625 165.234375 94.941406 170.792969 88.886719 C 171.039062 89.832031 171.886719 91.175781 171 92.707031 C 170.46875 93.628906 171.828125 93.847656 171.261719 95.9375 C 172.167969 94.605469 173.300781 92.597656 177.742188 91.457031 C 177.71875 92.972656 176.726562 94.457031 175.519531 95.46875 C 176.910156 97.039062 178.09375 100.105469 173.292969 100.847656 C 174.988281 102.285156 174.871094 102.988281 174.769531 103.628906 C 174.671875 104.277344 174.28125 105.628906 176.386719 106.070312 C 174.328125 106.550781 173.011719 106.234375 172.339844 105.257812 C 172.097656 105.90625 172.625 107.023438 174.015625 106.9375 C 170.492188 108.527344 168.578125 103.179688 168.335938 101.003906 C 168.265625 101.746094 168.433594 102.578125 168.742188 103.382812 C 169.667969 105.808594 168.234375 106.382812 167.785156 103.542969 C 167.59375 102.328125 167.964844 100.234375 167.367188 99.484375 C 166.90625 98.90625 166.667969 98.554688 166.945312 98.316406 " fill-opacity="1" fill-rule="evenodd"/></g></g></g><g clip-path="url(#11783b7aa8)"><g clip-path="url(#308790afe1)"><g clip-path="url(#72bccebc2b)"><path fill="#db6956" d="M 158.796875 119.070312 C 158.707031 118.03125 157.882812 115.761719 157.707031 115.378906 C 159.664062 118.921875 161.597656 119.019531 162.449219 118.199219 C 162.609375 118.046875 163.019531 117.6875 163.707031 118.277344 C 163.886719 118.433594 162.953125 117.179688 162.945312 116.929688 C 162.917969 116.15625 162.375 115.351562 161.125 115.089844 C 166.761719 113.765625 163.804688 110.351562 163.566406 106.144531 C 159.808594 107.066406 158.570312 110.5625 157.566406 113.871094 L 157.433594 113.765625 C 157.585938 113.515625 157.304688 113.265625 157.101562 113.324219 L 156.96875 113.1875 C 157.070312 112.988281 157.183594 112.792969 157.304688 112.605469 C 157.695312 112.003906 158.101562 111.949219 157.878906 111.644531 C 157.871094 111.648438 157.859375 111.652344 157.851562 111.65625 C 157.828125 111.757812 157.835938 111.847656 157.839844 111.949219 C 157.433594 112.292969 157.179688 112.703125 156.964844 113.183594 C 156.847656 113.085938 156.734375 113.117188 156.6875 113.261719 C 156.246094 112.96875 155.820312 112.753906 155.292969 112.675781 C 155.242188 112.585938 155.199219 112.503906 155.128906 112.429688 C 155.121094 112.433594 155.109375 112.433594 155.097656 112.4375 C 155.070312 112.8125 155.445312 112.640625 156.09375 112.949219 C 156.296875 113.042969 156.492188 113.152344 156.6875 113.269531 L 156.644531 113.453125 C 156.445312 113.507812 156.335938 113.859375 156.582031 114 L 156.527344 114.148438 C 153.859375 111.957031 150.886719 109.734375 147.25 111.046875 C 149.382812 114.683594 148.820312 119.164062 154.246094 117.140625 C 153.296875 118.101562 153.34375 119.132812 153.820312 119.796875 C 153.964844 120 153.839844 121.441406 153.941406 121.222656 C 154.355469 120.324219 154.882812 120.503906 155.167969 120.496094 C 156.257812 120.464844 157.4375 119.183594 157.234375 115.507812 C 157.292969 115.882812 157.695312 118.292969 158.175781 119.242188 C 158.484375 119.859375 158.855469 119.742188 158.796875 119.070312 " fill-opacity="1" fill-rule="evenodd"/></g></g></g><g clip-path="url(#4a9121b07e)"><g clip-path="url(#c3a140ff87)"><g clip-path="url(#a29daa105c)"><path fill="#db6956" d="M 171.652344 118.253906 C 172.371094 118 173.824219 117.003906 174.0625 116.808594 C 171.917969 118.835938 172.199219 120.222656 172.933594 120.671875 C 173.070312 120.757812 173.398438 120.980469 173.109375 121.574219 C 173.03125 121.730469 173.746094 120.84375 173.921875 120.792969 C 174.460938 120.628906 174.933594 120.101562 174.890625 119.171875 C 176.851562 122.914062 178.726562 120.203125 181.65625 119.265625 C 180.316406 116.78125 177.621094 116.542969 175.101562 116.433594 L 175.152344 116.320312 C 175.355469 116.382812 175.480469 116.140625 175.40625 116.003906 L 175.476562 115.886719 C 175.636719 115.925781 175.792969 115.96875 175.949219 116.019531 C 176.445312 116.183594 176.558594 116.464844 176.730469 116.25 C 176.726562 116.246094 176.722656 116.238281 176.71875 116.234375 C 176.644531 116.234375 176.578125 116.257812 176.507812 116.277344 C 176.191406 116.054688 175.859375 115.949219 175.476562 115.882812 C 175.527344 115.785156 175.484375 115.710938 175.371094 115.703125 C 175.5 115.339844 175.574219 114.996094 175.535156 114.609375 C 175.585938 114.558594 175.636719 114.515625 175.675781 114.453125 C 175.671875 114.445312 175.667969 114.4375 175.667969 114.429688 C 175.394531 114.476562 175.582031 114.710938 175.484375 115.226562 C 175.457031 115.386719 175.414062 115.546875 175.367188 115.703125 L 175.230469 115.707031 C 175.152344 115.578125 174.886719 115.5625 174.832031 115.761719 L 174.714844 115.753906 C 175.777344 113.46875 176.808594 110.964844 175.21875 108.632812 C 173.039062 110.804688 169.769531 111.21875 172.1875 114.683594 C 171.335938 114.191406 170.617188 114.414062 170.234375 114.867188 C 170.117188 115.007812 169.078125 115.183594 169.25 115.214844 C 169.957031 115.34375 169.925781 115.75 169.984375 115.949219 C 170.207031 116.710938 171.328125 117.3125 173.882812 116.496094 C 173.628906 116.609375 172.003906 117.332031 171.417969 117.84375 C 171.039062 118.175781 171.191406 118.417969 171.652344 118.253906 " fill-opacity="1" fill-rule="evenodd"/></g></g></g><g clip-path="url(#68a3dd8c7e)"><g clip-path="url(#21c0540a90)"><g clip-path="url(#51a18934d5)"><path fill="#db6956" d="M 180.136719 101.519531 C 180.601562 101.742188 181.773438 101.964844 181.980469 101.988281 C 179.980469 101.925781 179.453125 102.71875 179.585938 103.289062 C 179.609375 103.394531 179.660156 103.660156 179.234375 103.800781 C 179.121094 103.839844 179.890625 103.761719 180 103.820312 C 180.332031 104.003906 180.8125 103.976562 181.238281 103.511719 C 180.375 106.238281 182.570312 105.847656 184.417969 106.808594 C 184.972656 104.980469 183.804688 103.574219 182.65625 102.3125 L 182.734375 102.28125 C 182.800781 102.410156 182.976562 102.351562 183.003906 102.25 L 183.09375 102.230469 C 183.15625 102.324219 183.210938 102.421875 183.257812 102.519531 C 183.414062 102.835938 183.335938 103.023438 183.519531 103.003906 C 183.519531 103 183.519531 102.996094 183.523438 102.992188 C 183.484375 102.957031 183.445312 102.9375 183.402344 102.914062 C 183.359375 102.652344 183.246094 102.441406 183.097656 102.226562 C 183.171875 102.203125 183.183594 102.148438 183.136719 102.09375 C 183.371094 101.980469 183.570312 101.851562 183.738281 101.648438 C 183.789062 101.648438 183.832031 101.652344 183.882812 101.640625 C 183.882812 101.636719 183.886719 101.632812 183.886719 101.625 C 183.734375 101.519531 183.710938 101.722656 183.417969 101.917969 C 183.328125 101.980469 183.230469 102.039062 183.132812 102.089844 L 183.066406 102.027344 C 183.09375 101.925781 182.96875 101.792969 182.851562 101.859375 L 182.800781 101.800781 C 184.402344 101.222656 186.097656 100.523438 186.460938 98.648438 C 184.378906 98.636719 182.621094 97.261719 182.109375 100.074219 C 181.9375 99.429688 181.488281 99.191406 181.089844 99.222656 C 180.964844 99.234375 180.386719 98.816406 180.453125 98.914062 C 180.730469 99.316406 180.519531 99.496094 180.449219 99.617188 C 180.1875 100.089844 180.433594 100.914062 182.042969 101.753906 C 181.871094 101.6875 180.746094 101.246094 180.222656 101.210938 C 179.882812 101.1875 179.839844 101.375 180.136719 101.519531 " fill-opacity="1" fill-rule="evenodd"/></g></g></g><g clip-path="url(#04c8b186b2)"><g clip-path="url(#5fd34c341a)"><g clip-path="url(#32042aef33)"><path fill="#db6956" d="M 156.992188 97.742188 C 156.96875 97.792969 156.945312 97.828125 156.910156 97.882812 C 156.847656 97.875 156.804688 97.863281 156.75 97.828125 C 156.699219 97.886719 156.523438 97.835938 156.507812 97.753906 C 156.4375 97.773438 156.261719 97.757812 156.234375 97.664062 C 156.171875 97.683594 156.128906 97.664062 156.070312 97.640625 C 156.3125 98.855469 157.714844 99.507812 158.25 100.617188 C 158.433594 100.996094 158.40625 101.070312 158.300781 101.4375 C 157.941406 101.628906 157.707031 101.726562 157.625 102.152344 C 157.449219 103.078125 158.441406 104.195312 157.933594 104.414062 C 157.734375 104.5 157.429688 103.898438 157.058594 103.46875 C 156.738281 103.09375 155.757812 101.84375 155.1875 102.242188 C 155.160156 102.261719 155.136719 102.285156 155.109375 102.304688 C 154.855469 102 154.5625 101.726562 154.179688 102.011719 C 154.019531 101.527344 153.835938 101.050781 153.675781 100.566406 C 153.367188 101.140625 153.066406 101.988281 152.472656 101.902344 C 152.066406 101.839844 152.335938 101.921875 151.960938 101.984375 C 151.46875 102.066406 151.332031 101.828125 151.140625 101.777344 C 150.917969 101.722656 150.421875 101.972656 149.695312 101.539062 C 149.304688 101.300781 148.808594 101.382812 148.382812 101.207031 C 148.207031 101.132812 148.101562 101.023438 148 100.863281 C 146.492188 100.855469 147.597656 98.53125 148.285156 98.023438 C 148.882812 97.582031 149.710938 97.191406 150.265625 96.984375 C 151.347656 96.585938 152.476562 96.394531 153.617188 96.25 C 153.5625 96.191406 153.578125 96.128906 153.605469 96.0625 C 153.464844 96.222656 153.117188 96.035156 153.261719 95.851562 L 153.246094 95.816406 C 152.597656 95.929688 152.71875 96.320312 151.828125 96.308594 C 151.769531 96.304688 151.738281 96.285156 151.703125 96.230469 C 151.707031 96.222656 151.710938 96.214844 151.714844 96.207031 C 151.984375 96.183594 152.082031 96.472656 152.792969 95.972656 C 152.9375 95.867188 153.070312 95.828125 153.242188 95.8125 C 153.191406 95.707031 153.136719 95.625 153.046875 95.550781 L 153.09375 95.46875 C 153.203125 95.507812 153.300781 95.511719 153.421875 95.503906 C 153.34375 95.347656 153.3125 95.210938 153.324219 95.035156 C 153.398438 94.167969 153.097656 94.230469 152.980469 93.988281 C 152.984375 93.980469 152.988281 93.972656 152.992188 93.964844 C 153.058594 93.96875 153.09375 93.984375 153.125 94.035156 C 153.589844 94.792969 153.191406 94.886719 153.421875 95.503906 L 153.464844 95.5 C 153.546875 95.28125 153.886719 95.484375 153.820312 95.683594 C 153.863281 95.628906 153.90625 95.585938 153.984375 95.601562 C 153.53125 94.546875 153.121094 93.476562 152.910156 92.34375 C 152.804688 91.761719 152.71875 90.847656 152.792969 90.109375 C 152.878906 89.261719 154.316406 87.125 155.089844 88.417969 C 155.28125 88.421875 155.429688 88.457031 155.582031 88.574219 C 155.949219 88.847656 156.132812 89.316406 156.535156 89.53125 C 157.28125 89.933594 157.320312 90.488281 157.480469 90.652344 C 157.617188 90.792969 157.894531 90.789062 158.074219 91.253906 C 158.210938 91.609375 158.003906 91.417969 158.265625 91.738281 C 158.640625 92.203125 158.066406 92.894531 157.730469 93.449219 C 158.230469 93.34375 158.730469 93.253906 159.230469 93.148438 C 159.179688 93.621094 159.566406 93.734375 159.957031 93.796875 C 159.953125 93.832031 159.945312 93.863281 159.941406 93.894531 C 159.890625 94.589844 161.464844 94.796875 161.949219 94.882812 C 162.507812 94.980469 163.183594 94.9375 163.210938 95.152344 C 163.28125 95.699219 161.816406 95.417969 161.109375 96.039062 C 160.78125 96.328125 160.820312 96.578125 160.835938 96.984375 C 160.574219 97.265625 160.527344 97.324219 160.105469 97.359375 C 158.878906 97.464844 157.601562 96.59375 156.433594 97.003906 C 156.484375 97.042969 156.523438 97.066406 156.539062 97.132812 C 156.628906 97.105469 156.734375 97.25 156.753906 97.320312 C 156.832031 97.292969 156.964844 97.417969 156.941406 97.496094 C 157 97.519531 157.03125 97.550781 157.070312 97.601562 C 157.042969 97.660156 157.023438 97.699219 156.992188 97.742188 " fill-opacity="1" fill-rule="evenodd"/></g></g></g><g clip-path="url(#b23c0a26ee)"><g clip-path="url(#806cd12902)"><g clip-path="url(#154bf4c0fa)"><path fill="#db6956" d="M 179.058594 87.1875 C 179.027344 87.179688 179.003906 87.167969 178.96875 87.15625 C 178.964844 87.117188 178.964844 87.089844 178.980469 87.054688 C 178.9375 87.03125 178.949219 86.921875 178.992188 86.90625 C 178.972656 86.867188 178.960938 86.761719 179.011719 86.734375 C 178.992188 86.703125 179 86.671875 179.003906 86.636719 C 178.332031 86.929688 178.125 87.824219 177.546875 88.269531 C 177.351562 88.425781 177.304688 88.417969 177.078125 88.402344 C 176.921875 88.21875 176.835938 88.09375 176.578125 88.097656 C 176.019531 88.109375 175.496094 88.824219 175.304688 88.558594 C 175.230469 88.453125 175.542969 88.199219 175.746094 87.933594 C 175.921875 87.699219 176.527344 86.976562 176.226562 86.695312 C 176.210938 86.679688 176.195312 86.667969 176.179688 86.65625 C 176.324219 86.472656 176.445312 86.269531 176.234375 86.082031 C 176.496094 85.925781 176.75 85.761719 177.007812 85.609375 C 176.640625 85.503906 176.109375 85.433594 176.085938 85.078125 C 176.070312 84.832031 176.058594 85 175.976562 84.789062 C 175.867188 84.515625 175.988281 84.40625 175.992188 84.289062 C 176 84.152344 175.792969 83.894531 175.953125 83.417969 C 176.042969 83.164062 175.933594 82.882812 175.984375 82.617188 C 176.003906 82.503906 176.054688 82.429688 176.136719 82.351562 C 175.953125 81.476562 177.441406 81.832031 177.820312 82.164062 C 178.148438 82.457031 178.480469 82.890625 178.667969 83.1875 C 179.03125 83.765625 179.285156 84.398438 179.507812 85.039062 C 179.535156 85 179.574219 85.003906 179.617188 85.011719 C 179.503906 84.949219 179.570312 84.726562 179.695312 84.785156 L 179.714844 84.773438 C 179.566406 84.410156 179.355469 84.53125 179.253906 84.011719 C 179.246094 83.976562 179.257812 83.953125 179.28125 83.925781 C 179.289062 83.929688 179.292969 83.929688 179.296875 83.933594 C 179.34375 84.085938 179.1875 84.179688 179.570312 84.527344 C 179.644531 84.597656 179.6875 84.671875 179.714844 84.769531 C 179.769531 84.726562 179.8125 84.6875 179.84375 84.621094 L 179.898438 84.640625 C 179.886719 84.710938 179.898438 84.765625 179.917969 84.835938 C 180 84.769531 180.074219 84.734375 180.179688 84.722656 C 180.6875 84.65625 180.617188 84.488281 180.742188 84.390625 C 180.75 84.394531 180.753906 84.394531 180.757812 84.394531 C 180.765625 84.433594 180.757812 84.457031 180.734375 84.480469 C 180.351562 84.84375 180.246094 84.625 179.917969 84.835938 L 179.925781 84.859375 C 180.0625 84.882812 179.984375 85.101562 179.859375 85.089844 C 179.898438 85.105469 179.929688 85.128906 179.929688 85.175781 C 180.484375 84.78125 181.054688 84.410156 181.6875 84.148438 C 182.015625 84.011719 182.53125 83.851562 182.972656 83.804688 C 183.472656 83.746094 184.890625 84.316406 184.238281 84.925781 C 184.257812 85.039062 184.253906 85.128906 184.207031 85.230469 C 184.09375 85.476562 183.84375 85.644531 183.769531 85.902344 C 183.628906 86.386719 183.308594 86.476562 183.234375 86.589844 C 183.171875 86.6875 183.207031 86.847656 182.960938 87.007812 C 182.773438 87.132812 182.855469 86.988281 182.703125 87.179688 C 182.480469 87.457031 182.007812 87.207031 181.644531 87.082031 C 181.769531 87.359375 181.878906 87.640625 182.003906 87.914062 C 181.722656 87.945312 181.703125 88.183594 181.71875 88.417969 C 181.695312 88.417969 181.675781 88.417969 181.65625 88.421875 C 181.25 88.476562 181.324219 89.417969 181.332031 89.707031 C 181.34375 90.046875 181.453125 90.429688 181.332031 90.472656 C 181.023438 90.582031 181.007812 89.695312 180.558594 89.363281 C 180.347656 89.210938 180.210938 89.261719 179.976562 89.320312 C 179.78125 89.207031 179.738281 89.183594 179.667969 88.945312 C 179.453125 88.246094 179.804688 87.394531 179.421875 86.769531 C 179.40625 86.800781 179.394531 86.828125 179.359375 86.84375 C 179.382812 86.894531 179.316406 86.972656 179.277344 86.996094 C 179.300781 87.035156 179.246094 87.128906 179.199219 87.125 C 179.191406 87.164062 179.175781 87.183594 179.152344 87.210938 C 179.113281 87.203125 179.089844 87.195312 179.058594 87.1875 " fill-opacity="1" fill-rule="evenodd"/></g></g></g></svg>