<svg xmlns="http://www.w3.org/2000/svg" xmlns:xlink="http://www.w3.org/1999/xlink" width="500" zoomAndPan="magnify" viewBox="0 0 375 374.999991" height="500" preserveAspectRatio="xMidYMid meet" version="1.0"><path fill="#f77f00" d="M 312.980469 248.332031 C 310.695312 256.019531 303.863281 261.449219 295.859375 262.003906 C 249.910156 265.191406 212.242188 285.839844 196.039062 296.148438 L 196.039062 185.515625 C 196.039062 184.605469 195.894531 183.722656 195.625 182.894531 C 251.8125 128.527344 347.066406 133.511719 347.066406 133.511719 Z M 193.785156 296.421875 C 193.785156 299.90625 190.953125 302.738281 187.46875 302.738281 C 183.984375 302.738281 181.15625 299.90625 181.15625 296.421875 L 181.15625 185.515625 C 181.15625 182.023438 183.984375 179.199219 187.46875 179.199219 C 190.953125 179.199219 193.785156 182.023438 193.785156 185.515625 Z M 178.902344 185.515625 L 178.902344 296.148438 C 162.699219 285.839844 125.03125 265.191406 79.082031 262.003906 C 71.078125 261.449219 64.246094 256.019531 61.960938 248.332031 L 27.875 133.511719 C 27.875 133.511719 123.125 128.527344 179.3125 182.894531 C 179.046875 183.722656 178.902344 184.605469 178.902344 185.515625 Z M 183.214844 178.085938 C 183 178.207031 182.792969 178.339844 182.585938 178.480469 C 170.578125 165.984375 135.902344 136.316406 73.082031 130.765625 C 67.261719 130.25 62.136719 126.699219 59.625 121.421875 L 55.140625 112.003906 C 55.140625 112.003906 140.273438 121.589844 183.214844 178.085938 Z M 179.804688 165.632812 C 179.804688 165.632812 154.492188 131.609375 96.746094 117.492188 C 89.867188 115.808594 84.839844 109.90625 84.246094 102.851562 C 114.347656 110.265625 155.746094 127.175781 179.804688 165.632812 Z M 176.003906 147.953125 C 176.953125 149.519531 177.277344 150.402344 177.277344 150.402344 C 176.867188 149.574219 176.441406 148.765625 176.003906 147.953125 C 172.625 142.371094 161.257812 127.949219 127.960938 112.597656 C 122.394531 110.027344 118.707031 104.582031 118.390625 98.460938 L 118.109375 93 C 138.027344 105.097656 163.035156 123.929688 176.003906 147.953125 Z M 319.796875 112.003906 L 315.316406 121.421875 C 312.800781 126.699219 307.683594 130.25 301.859375 130.765625 C 239.035156 136.316406 204.359375 165.984375 192.351562 178.480469 C 192.152344 178.339844 191.9375 178.207031 191.726562 178.085938 C 234.667969 121.589844 319.796875 112.003906 319.796875 112.003906 Z M 290.691406 102.851562 C 290.101562 109.90625 285.070312 115.808594 278.199219 117.492188 C 220.445312 131.609375 195.132812 165.632812 195.132812 165.632812 C 219.191406 127.175781 260.59375 110.265625 290.691406 102.851562 Z M 198.933594 147.953125 C 211.902344 123.929688 236.910156 105.097656 256.828125 93 L 256.546875 98.460938 C 256.234375 104.582031 252.546875 110.027344 246.984375 112.597656 C 213.679688 127.949219 202.316406 142.371094 198.933594 147.953125 C 198.5 148.765625 198.074219 149.574219 197.664062 150.402344 C 197.664062 150.402344 197.988281 149.519531 198.933594 147.953125 Z M 187.46875 -0.03125 C 83.914062 -0.03125 -0.03125 83.914062 -0.03125 187.46875 C -0.03125 291.023438 83.914062 374.96875 187.46875 374.96875 C 291.023438 374.96875 374.96875 291.023438 374.96875 187.46875 C 374.96875 83.914062 291.023438 -0.03125 187.46875 -0.03125 " fill-opacity="1" fill-rule="nonzero"/></svg>